HIERARCHY
ROOT Hips
{
  OFFSET 0.0502701 92.146 0
  CHANNELS 6 Xposition Yposition Zposition Zrotation Xrotation Yrotation
  JOINT Bip01_Pelvis
  {
    OFFSET 0 0 0
    CHANNELS 6 Xposition Yposition Zposition Zrotation Xrotation Yrotation
    JOINT BN_Tai_01
    {
      OFFSET -4.6544 -2.06234 0
      CHANNELS 6 Xposition Yposition Zposition Zrotation Xrotation Yrotation
      JOINT BN_Tai_R_01
      {
        OFFSET 10.2279 -0.119812 3.68897
        CHANNELS 6 Xposition Yposition Zposition Zrotation Xrotation Yrotation
        JOINT BN_Tai_R_02
        {
          OFFSET 15.0421 0 1.52588e-005
          CHANNELS 6 Xposition Yposition Zposition Zrotation Xrotation Yrotation
          End Site
          {
            OFFSET 0 0 0
          }
        }
      }
      JOINT BN_Tai_L_01
      {
        OFFSET 10.2279 -0.119797 -3.68907
        CHANNELS 6 Xposition Yposition Zposition Zrotation Xrotation Yrotation
        JOINT BN_Tai_L_02
        {
          OFFSET 15.0421 0 0
          CHANNELS 6 Xposition Yposition Zposition Zrotation Xrotation Yrotation
          End Site
          {
            OFFSET 0 0 0
          }
        }
      }
    }
    JOINT Bip01_Spine
    {
      OFFSET 2.7319 1.49192 0
      CHANNELS 6 Xposition Yposition Zposition Zrotation Xrotation Yrotation
      JOINT Bip01_R_Thigh
      {
        OFFSET -2.85206 -1.24717 -6.20578
        CHANNELS 6 Xposition Yposition Zposition Zrotation Xrotation Yrotation
        JOINT Bip01_R_Calf
        {
          OFFSET 6.73247 0 0
          CHANNELS 6 Xposition Yposition Zposition Zrotation Xrotation Yrotation
          JOINT Bip01_R_HorseLink
          {
            OFFSET 8.08523 0 0
            CHANNELS 6 Xposition Yposition Zposition Zrotation Xrotation Yrotation
            JOINT Bip01_R_Foot
            {
              OFFSET 8.97518 0 0
              CHANNELS 6 Xposition Yposition Zposition Zrotation Xrotation Yrotation
              JOINT BN_Toe_R_30
              {
                OFFSET 1.58762 -0.234982 -0.295153
                CHANNELS 6 Xposition Yposition Zposition Zrotation Xrotation Yrotation
                JOINT BN_Toe_R_31
                {
                  OFFSET 3.03849 0 0
                  CHANNELS 6 Xposition Yposition Zposition Zrotation Xrotation Yrotation
                  End Site
                  {
                    OFFSET 0 0 0
                  }
                }
              }
              JOINT BN_Toe_R_00
              {
                OFFSET 1.65463 0.933666 1.02414
                CHANNELS 6 Xposition Yposition Zposition Zrotation Xrotation Yrotation
                JOINT BN_Toe_R_01
                {
                  OFFSET 3.51775 0 0
                  CHANNELS 6 Xposition Yposition Zposition Zrotation Xrotation Yrotation
                  End Site
                  {
                    OFFSET 0 0 0
                  }
                }
              }
              JOINT BN_Toe_R_20
              {
                OFFSET 1.47309 1.0106 -1.16708
                CHANNELS 6 Xposition Yposition Zposition Zrotation Xrotation Yrotation
                JOINT BN_Toe_R_21
                {
                  OFFSET 3.94896 0 0
                  CHANNELS 6 Xposition Yposition Zposition Zrotation Xrotation Yrotation
                  End Site
                  {
                    OFFSET 0 0 0
                  }
                }
              }
              JOINT BN_Toe_R_10
              {
                OFFSET 1.07522 1.64225 0.0223596
                CHANNELS 6 Xposition Yposition Zposition Zrotation Xrotation Yrotation
                JOINT BN_Toe_R_11
                {
                  OFFSET 4.09655 0 0
                  CHANNELS 6 Xposition Yposition Zposition Zrotation Xrotation Yrotation
                  End Site
                  {
                    OFFSET 0 0 0
                  }
                }
              }
              JOINT Bip01_R_Toe0
              {
                OFFSET 2.04238 1.88275 0
                CHANNELS 6 Xposition Yposition Zposition Zrotation Xrotation Yrotation
                End Site
                {
                  OFFSET 0 0 0
                }
              }
            }
          }
        }
      }
      JOINT Bip01_L_Thigh
      {
        OFFSET -2.85154 -1.24849 6.20577
        CHANNELS 6 Xposition Yposition Zposition Zrotation Xrotation Yrotation
        JOINT Bip01_L_Calf
        {
          OFFSET 6.73247 0 0
          CHANNELS 6 Xposition Yposition Zposition Zrotation Xrotation Yrotation
          JOINT Bip01_L_HorseLink
          {
            OFFSET 8.08524 0 0
            CHANNELS 6 Xposition Yposition Zposition Zrotation Xrotation Yrotation
            JOINT Bip01_L_Foot
            {
              OFFSET 8.97521 0 0
              CHANNELS 6 Xposition Yposition Zposition Zrotation Xrotation Yrotation
              JOINT BN_Toe_L_00
              {
                OFFSET 1.65461 0.933701 -1.02419
                CHANNELS 6 Xposition Yposition Zposition Zrotation Xrotation Yrotation
                JOINT BN_Toe_L_01
                {
                  OFFSET 3.51778 0 0
                  CHANNELS 6 Xposition Yposition Zposition Zrotation Xrotation Yrotation
                  End Site
                  {
                    OFFSET 0 0 0
                  }
                }
              }
              JOINT BN_Toe_L_10
              {
                OFFSET 1.07523 1.6422 -0.0221281
                CHANNELS 6 Xposition Yposition Zposition Zrotation Xrotation Yrotation
                JOINT BN_Toe_L_11
                {
                  OFFSET 4.09657 0 0
                  CHANNELS 6 Xposition Yposition Zposition Zrotation Xrotation Yrotation
                  End Site
                  {
                    OFFSET 0 0 0
                  }
                }
              }
              JOINT BN_Toe_L_30
              {
                OFFSET 1.58761 -0.234954 0.295135
                CHANNELS 6 Xposition Yposition Zposition Zrotation Xrotation Yrotation
                JOINT BN_Toe_L_31
                {
                  OFFSET 3.03847 0 0
                  CHANNELS 6 Xposition Yposition Zposition Zrotation Xrotation Yrotation
                  End Site
                  {
                    OFFSET 0 0 0
                  }
                }
              }
              JOINT BN_Toe_L_20
              {
                OFFSET 1.4731 1.01055 1.1673
                CHANNELS 6 Xposition Yposition Zposition Zrotation Xrotation Yrotation
                JOINT BN_Toe_L_21
                {
                  OFFSET 3.94897 0 0
                  CHANNELS 6 Xposition Yposition Zposition Zrotation Xrotation Yrotation
                  End Site
                  {
                    OFFSET 0 0 0
                  }
                }
              }
              JOINT Bip01_L_Toe0
              {
                OFFSET 2.04238 1.88276 0
                CHANNELS 6 Xposition Yposition Zposition Zrotation Xrotation Yrotation
                End Site
                {
                  OFFSET 0 0 0
                }
              }
            }
          }
        }
      }
      JOINT Bip01_Spine1
      {
        OFFSET 8.6167 -0.00679016 0
        CHANNELS 6 Xposition Yposition Zposition Zrotation Xrotation Yrotation
        JOINT BN_Wing_R_01
        {
          OFFSET 0.267445 -6.12421 -7.49305
          CHANNELS 6 Xposition Yposition Zposition Zrotation Xrotation Yrotation
          JOINT BN_Wing_R_02
          {
            OFFSET 14.7158 0 0
            CHANNELS 6 Xposition Yposition Zposition Zrotation Xrotation Yrotation
            JOINT BN_Wing_R_03
            {
              OFFSET 19.0858 0 0
              CHANNELS 6 Xposition Yposition Zposition Zrotation Xrotation Yrotation
              JOINT BN_Wing_R_05
              {
                OFFSET 2.68908 -0.270637 0.785261
                CHANNELS 6 Xposition Yposition Zposition Zrotation Xrotation Yrotation
                JOINT BN_Wing_R_06
                {
                  OFFSET 21.1083 0 0
                  CHANNELS 6 Xposition Yposition Zposition Zrotation Xrotation Yrotation
                  End Site
                  {
                    OFFSET 0 0 0
                  }
                }
              }
              JOINT BN_Wing_R_04
              {
                OFFSET 27.642 0 0
                CHANNELS 6 Xposition Yposition Zposition Zrotation Xrotation Yrotation
                End Site
                {
                  OFFSET 0 0 0
                }
              }
            }
          }
        }
        JOINT BN_Wing_L_01
        {
          OFFSET 0.267452 -6.12421 7.49305
          CHANNELS 6 Xposition Yposition Zposition Zrotation Xrotation Yrotation
          JOINT BN_Wing_L_02
          {
            OFFSET 14.7158 0 0
            CHANNELS 6 Xposition Yposition Zposition Zrotation Xrotation Yrotation
            JOINT BN_Wing_L_03
            {
              OFFSET 19.0858 0 0
              CHANNELS 6 Xposition Yposition Zposition Zrotation Xrotation Yrotation
              JOINT BN_Wing_L_05
              {
                OFFSET 2.68908 -0.270635 -0.785254
                CHANNELS 6 Xposition Yposition Zposition Zrotation Xrotation Yrotation
                JOINT BN_Wing_L_06
                {
                  OFFSET 21.1083 0 0
                  CHANNELS 6 Xposition Yposition Zposition Zrotation Xrotation Yrotation
                  End Site
                  {
                    OFFSET 0 0 0
                  }
                }
              }
              JOINT BN_Wing_L_04
              {
                OFFSET 27.642 0 1.14441e-005
                CHANNELS 6 Xposition Yposition Zposition Zrotation Xrotation Yrotation
                End Site
                {
                  OFFSET 0 0 0
                }
              }
            }
          }
        }
        JOINT Bip01_Neck
        {
          OFFSET 7.59958 -1.43237 0
          CHANNELS 6 Xposition Yposition Zposition Zrotation Xrotation Yrotation
          JOINT Bip01_Neck1
          {
            OFFSET 3.64749 -0.00262451 0
            CHANNELS 6 Xposition Yposition Zposition Zrotation Xrotation Yrotation
            JOINT Bip01_Neck2
            {
              OFFSET 3.32331 -0.00284576 0
              CHANNELS 6 Xposition Yposition Zposition Zrotation Xrotation Yrotation
              JOINT Bip01_Head
              {
                OFFSET 4.63256 -0.573471 0
                CHANNELS 6 Xposition Yposition Zposition Zrotation Xrotation Yrotation
                JOINT BN_Jaw
                {
                  OFFSET 1.05386 2.23561 0
                  CHANNELS 6 Xposition Yposition Zposition Zrotation Xrotation Yrotation
                  End Site
                  {
                    OFFSET 0 0 0
                  }
                }
              }
            }
          }
        }
      }
    }
  }
}
MOTION
Frames:	4
Frame Time:	0.0333333
-0.133723 94.2184 0 135.356 -90 178.179 0 0 0 -89.9946 9.5772 -89.9948 -4.65442 -2.06234 1.73472e-018 -8.12547 1.9485 179.532 10.228 -0.119785 3.68891 28.6031 80.8654 -27.8415 15.0421 -2.38419e-007 0 5.14665 -4.542 9.38255 10.2278 -0.11977 -3.68914 -138.507 78.4916 143.9 15.0421 -8.88179e-016 -3.8147e-006 -5.15014 4.54172 9.38269 3.04981 0.628586 -9.31323e-010 -8.20786 -1.26504e-010 2.14033e-010 -2.92973 -1.05769 -6.20596 -165.789 -21.4358 176.292 6.7325 3.8147e-006 -1.90735e-006 -117.413 -5.76271e-006 8.11787e-006 8.08525 -3.8147e-006 0 116.106 1.51411e-006 1.73826e-006 8.97521 3.8147e-006 0 -74.8203 -0.0604691 -24.4815 1.58764 -0.235001 -0.295147 146.155 0.792635 166.367 3.03847 3.8147e-006 5.72205e-006 -45.9883 -4.24711e-006 1.04271e-005 1.65462 0.933647 1.02414 71.7281 27.4578 -45.3025 3.51774 0 1.42109e-014 31.7752 2.31235e-006 -4.83505e-006 1.4731 1.01059 -1.16707 66.6448 -8.00172 30.8802 3.94899 7.6294e-006 3.8147e-006 32.8748 -3.36742e-007 6.36661e-007 1.07521 1.64223 0.0223651 54.8099 -6.18649 -1.0778 4.09657 1.42109e-014 1.19209e-007 56.2688 6.34528e-006 -9.64498e-006 2.04238 1.88274 4.76837e-007 87.4729 -2.52844 27.7808 -2.93031 -1.05761 6.20576 -119.524 11.0838 171.284 6.73249 7.6294e-006 -1.90735e-006 -83.9793 -1.13109e-005 2.82634e-006 8.08523 0 3.55271e-015 113.362 7.25783e-006 1.4811e-005 8.9752 1.42108e-014 9.53674e-007 -48.9876 4.93519 9.52306 1.65462 0.933692 -1.02419 66.714 -31.6813 42.8255 3.51775 0 0 47.7875 1.8595e-005 -9.14412e-006 1.07522 1.64219 -0.0221255 66.4582 -3.31651 6.53568 4.09656 -3.81469e-006 7.10543e-015 50.5759 1.67006e-005 -3.18143e-006 1.58763 -0.234947 0.295136 135.264 5.7028 -177.038 3.0385 7.62939e-006 0 -38.7373 8.07918e-006 7.40587e-006 1.4731 1.01055 1.1673 66.8811 5.45928 -10.7952 3.94895 -7.10542e-015 1.90735e-006 48.5268 4.0934e-007 2.79585e-006 2.04238 1.88275 2.38419e-007 120.306 0.489715 -30.702 8.61717 -0.0068512 2.53879e-006 -4.08905 1.11587e-010 -4.19263e-010 0.267441 -6.12426 -7.49305 -69.5951 -2.51833 27.042 14.7158 2.28882e-005 0 51.381 5.15707 -4.82037 19.0859 0 3.55271e-015 -36.6053 -2.24683 23.928 2.68911 -0.27063 0.785263 -43.8612 2.4697 4.79228 21.1082 7.62939e-006 3.8147e-006 -1.32056 -2.34539 36.8282 27.642 0 -7.62939e-006 -2.63525 -0.0479283 40.8152 0.267464 -6.12426 7.49305 -69.5951 2.51833 -27.042 14.7158 0 1.90735e-006 51.381 -5.15707 4.82036 19.0859 0 1.90735e-006 -36.6053 2.24683 -23.928 2.68911 -0.270653 -0.785278 -43.8612 -2.46969 -4.79228 21.1083 1.52588e-005 -1.14441e-005 -1.3205 2.34545 -36.8282 27.642 0 0 -2.63552 0.0476253 -40.8152 7.59942 -1.43242 1.73472e-018 3.77414 -2.08441e-010 -2.08442e-010 3.64919 -0.00226212 -9.31323e-010 31.3246 1.08364e-010 1.78054e-010 3.32337 -0.00286102 -9.31323e-010 -4.46352 2.08387e-011 -3.32736e-010 4.63255 -0.573479 -9.31323e-010 -7.21592 4.15231e-010 2.61834e-011 1.05388 2.23563 -9.31323e-010 -79.0055 -0.0283661 -179.966 
0.103756 93.4158 -0.0112137 -21.4317 -89.9893 20.6843 0 0 0 -89.9946 9.57721 -89.9948 -4.65442 -2.06234 6.59195e-016 -8.3508 1.94978 179.534 10.228 -0.119785 3.68891 28.7901 81.0066 -29.6338 15.0421 -2.38419e-007 -7.10542e-015 5.12536 -4.57288 8.25055 10.2278 -0.11977 -3.68914 -138.278 78.5935 142.066 15.0421 8.88179e-016 -3.8147e-006 -5.16142 4.57385 8.25209 3.04981 0.628586 -9.31323e-010 -8.37107 -0.0100791 -0.153024 -2.94289 -1.06548 -6.19818 -159.479 -20.4694 177.889 6.7325 3.8147e-006 -1.90735e-006 -112.166 -4.6004e-006 8.77211e-006 8.08525 -3.8147e-006 -7.10543e-015 108.597 1.03348e-005 -1.12753e-006 8.97521 3.8147e-006 -7.10543e-015 -72.6327 1.9002 -23.1057 1.58764 -0.235001 -0.295147 146.167 0.790453 166.366 3.03847 3.8147e-006 5.72205e-006 -44.9717 2.70579e-006 3.97096e-006 1.65462 0.933647 1.02414 72.0411 27.3867 -45.2483 3.51774 -2.84217e-014 -1.42109e-014 31.6242 2.82574e-006 -4.72481e-006 1.4731 1.01059 -1.16707 66.64 -8.0102 30.8413 3.94899 7.6294e-006 3.8147e-006 32.5257 -0.0827298 0.12836 1.07521 1.64223 0.0223651 55.5086 -6.19762 -1.00281 4.09657 0 1.19209e-007 56.0609 0.0017863 0.00118829 2.04238 1.88274 4.76599e-007 87.4658 -2.57762 27.6238 -2.90978 -1.06881 6.21321 -122.109 11.0709 172.129 6.73249 7.6294e-006 -1.90735e-006 -88.7556 -1.09113e-005 1.93683e-006 8.08523 -1.42109e-014 -8.88179e-015 111.137 6.97811e-006 1.5617e-005 8.9752 -1.42108e-014 9.53674e-007 -47.0235 3.93132 9.76066 1.65462 0.933692 -1.02419 66.5279 -31.8852 42.9353 3.51775 -2.13163e-014 -2.84217e-014 47.3734 -0.0671515 0.282043 1.07522 1.64219 -0.0221255 66.7226 -3.23414 6.53278 4.09656 -3.81469e-006 0 52.0738 8.45957e-006 -9.86234e-006 1.58763 -0.234947 0.295136 136.207 5.66948 -177.143 3.0385 7.62939e-006 -3.01981e-014 -36.9181 -0.000394678 0.000543188 1.4731 1.01055 1.1673 68.2522 5.47024 -11.0053 3.94895 7.10542e-015 1.90735e-006 50.709 -0.000386565 -0.000803552 2.04238 1.88275 2.38378e-007 120.544 0.652221 -30.5268 8.61717 -0.0068512 2.53879e-006 -3.64697 -0.251626 0.12983 0.267441 -6.12426 -7.49305 -67.8399 -3.92231 25.9362 14.7158 2.28882e-005 -3.55271e-015 48.6646 5.00516 -4.79271 19.0859 1.77636e-015 -1.06581e-014 -37.0745 -2.42422 16.0181 2.68911 -0.27063 0.785263 -45.8371 2.12981 5.22999 21.1082 7.62939e-006 3.8147e-006 -1.33464 -2.45248 31.5244 27.642 2.84217e-014 -7.62939e-006 -2.6226 -0.0582566 33.3174 0.267464 -6.12426 7.49305 -67.6619 4.06921 -25.9779 14.7158 0 1.90735e-006 48.6646 -5.00515 4.79272 19.0859 9.76996e-015 1.90735e-006 -37.0745 2.42422 -16.0181 2.68911 -0.270653 -0.785278 -45.8371 -2.1298 -5.22998 21.1083 1.52588e-005 -1.14441e-005 -1.33461 2.45252 -31.5245 27.642 0 0 -2.62263 0.0582213 -33.3175 7.59942 -1.43242 7.49401e-016 2.01397 0.128108 0.252042 3.64919 -0.00226212 -9.31323e-010 30.0071 0.0134961 -0.00340527 3.32337 -0.00286102 -9.31323e-010 -3.63251 -0.123735 0.112957 4.63255 -0.573479 -9.3134e-010 -4.65807 -0.0476826 0.0403159 1.05388 2.23563 -9.31221e-010 -79.6402 -0.0233002 -179.967 
0.470583 92.5424 -0.018359 -30.9046 -89.9609 10.3036 0 0 0 -89.9946 9.57721 -89.9947 -4.65442 -2.06234 1.85962e-015 -8.9407 1.95321 179.538 10.228 -0.119785 3.68891 28.552 81.1269 -31.1789 15.0421 -2.38419e-007 7.10542e-015 5.06544 -4.64893 5.28744 10.2278 -0.11977 -3.68914 -138.13 78.6594 140.128 15.0421 3.55272e-015 -3.8147e-006 -5.18118 4.6509 5.28545 3.04981 0.628586 -9.31323e-010 -8.56212 -0.0226254 -0.306787 -2.95579 -1.07314 -6.19054 -152.966 -19.3608 179.434 6.7325 3.8147e-006 -1.90735e-006 -106.806 -3.76096e-006 9.16345e-006 8.08525 -3.8147e-006 0 100.737 1.03919e-005 2.96281e-007 8.97521 3.8147e-006 -3.55271e-015 -70.2864 3.77886 -21.5044 1.58764 -0.235001 -0.295147 146.179 0.7883 166.365 3.03847 3.8147e-006 5.72205e-006 -43.9748 3.43897e-006 3.47833e-006 1.65462 0.933647 1.02414 72.2806 27.336 -45.171 3.51774 -5.68434e-014 0 31.4762 7.03607e-006 2.71167e-006 1.4731 1.01059 -1.16707 66.6353 -8.0185 30.8031 3.94899 7.6294e-006 3.8147e-006 32.1835 -0.164603 0.253742 1.07521 1.64223 0.0223651 56.1937 -6.20764 -0.929146 4.09657 -4.26326e-014 1.19209e-007 55.857 0.00351885 0.00237255 2.04238 1.88274 4.76463e-007 87.4588 -2.62581 27.4698 -2.88962 -1.0798 6.22052 -124.079 10.8241 173.074 6.73249 7.6294e-006 -1.90735e-006 -92.1078 -1.0621e-005 1.30412e-006 8.08523 -1.06581e-014 -1.77636e-015 107.584 6.95949e-006 1.60655e-005 8.9752 1.42108e-014 9.53674e-007 -46.9742 2.46281 9.8736 1.65462 0.933692 -1.02419 66.1354 -32.3428 43.192 3.51775 -2.13163e-014 -5.68434e-014 46.9677 -0.134974 0.558142 1.07522 1.64219 -0.0221255 66.9819 -3.15334 6.52959 4.09656 -3.81469e-006 0 53.5427 8.29025e-006 -9.59442e-006 1.58763 -0.234947 0.295136 138.674 5.64894 -177.393 3.0385 7.62939e-006 -8.52651e-014 -35.1342 -0.000760159 0.00109851 1.4731 1.01055 1.1673 70.0804 5.45165 -11.5916 3.94895 -1.42108e-014 1.90735e-006 52.8489 -0.000783618 -0.00157016 2.04238 1.88275 2.38484e-007 120.777 0.812267 -30.3555 8.61717 -0.0068512 2.53879e-006 -3.19919 -0.514607 0.262016 0.267441 -6.12426 -7.49305 -67.1725 -4.72728 24.8922 14.7158 2.28882e-005 7.10543e-015 47.3878 4.86609 -4.71647 19.0859 -7.10542e-015 -1.42109e-014 -37.9204 -2.65252 5.70178 2.68911 -0.27063 0.785263 -48.199 1.76177 6.24616 21.1082 7.62939e-006 3.8147e-006 -1.37752 -2.60489 19.12 27.642 -1.42108e-014 -7.62939e-006 -2.58964 -0.0791494 19.0169 0.267464 -6.12426 7.49305 -66.9728 4.89232 -24.9444 14.7158 1.42109e-014 1.90735e-006 47.3878 -4.86609 4.71646 19.0859 8.88178e-016 1.90735e-006 -37.9204 2.65252 -5.70178 2.68911 -0.270653 -0.785278 -48.199 -1.76175 -6.24616 21.1083 1.52588e-005 -1.14441e-005 -1.37751 2.6049 -19.1201 27.642 0 0 -2.58965 0.0791458 -19.0169 7.59942 -1.43242 9.4369e-016 -0.13051 0.254726 0.500388 3.64919 -0.00226212 -9.31323e-010 28.7987 0.011993 0.018586 3.32337 -0.00286102 -9.31323e-010 -2.76949 -0.247489 0.252885 4.63255 -0.573479 -9.31501e-010 -1.68564 -0.102384 0.0649471 1.05388 2.23563 -9.30365e-010 -81.2902 -0.0263367 -179.967 
0.919106 91.6101 -0.0233348 -29.9502 -89.9184 10.2174 0 0 0 -89.9947 9.57721 -89.9947 -4.65442 -2.06234 2.19269e-015 -9.8187 1.9585 179.544 10.228 -0.119785 3.68891 28.0548 81.2264 -32.6095 15.0421 -2.38419e-007 0 4.97312 -4.74165 0.875191 10.2278 -0.11977 -3.68914 -138.031 78.6926 138.093 15.0421 -3.55272e-015 -3.8147e-006 -5.20432 4.74035 0.874271 3.04981 0.628586 -9.31323e-010 -8.77616 -0.0314674 -0.458382 -2.96833 -1.08249 -6.18291 -146.226 -18.0677 -179.091 6.7325 3.8147e-006 -1.90735e-006 -101.271 -2.85948e-006 9.48351e-006 8.08525 -3.8147e-006 3.55271e-015 92.5167 1.18867e-006 2.17709e-006 8.97521 3.8147e-006 0 -67.8479 5.54451 -19.6558 1.58764 -0.235001 -0.295147 146.192 0.786118 166.364 3.03847 3.8147e-006 5.72205e-006 -42.9681 3.67188e-006 3.47236e-006 1.65462 0.933647 1.02414 72.4687 27.2901 -45.0603 3.51774 -7.10543e-014 0 31.3266 -7.00183e-008 -4.3957e-006 1.4731 1.01059 -1.16707 66.6247 -8.04184 30.6957 3.94899 7.6294e-006 3.8147e-006 31.8381 -0.248047 0.379864 1.07521 1.64223 0.0223651 56.8857 -6.21689 -0.85465 4.09657 -2.84217e-014 1.19209e-007 55.6511 0.00525522 0.00357779 2.04238 1.88274 4.76415e-007 87.4516 -2.6745 27.3143 -2.86928 -1.0909 6.2279 -125.508 10.3433 174.095 6.73249 7.6294e-006 -1.90735e-006 -94.2296 -4.58863e-007 1.64005e-006 8.08523 -1.42109e-014 -1.77636e-015 102.878 4.55959e-006 1.6959e-005 8.9752 -1.42108e-014 9.53674e-007 -48.499 0.715496 9.74562 1.65462 0.933692 -1.02419 65.5776 -33.0072 43.5826 3.51775 1.42108e-014 -1.42109e-014 45.8153 -0.256249 1.26255 1.07522 1.64219 -0.0221255 67.1334 -3.09345 6.5137 4.09656 -3.81469e-006 1.77636e-015 55.0261 6.49705e-006 -1.00522e-005 1.58763 -0.234947 0.295136 142.419 5.57639 -177.787 3.0385 7.62939e-006 -1.47438e-013 -33.3327 -0.00109686 0.00168652 1.4731 1.01055 1.1673 72.081 5.45157 -12.4399 3.94895 0 1.90735e-006 55.0099 -0.0012207 -0.00233233 2.04238 1.88275 2.38129e-007 121.438 1.27454 -29.8701 8.61717 -0.0068512 2.53879e-006 -2.73941 -0.789519 0.393916 0.267441 -6.12426 -7.49305 -67.1691 -5.13166 25.1973 14.7158 2.28882e-005 -3.55271e-015 46.8269 4.7421 -4.59062 19.0859 -4.44089e-015 -2.4869e-014 -39.0502 -2.85282 -5.71938 2.68911 -0.27063 0.785263 -50.5054 1.42102 7.47621 21.1082 7.62939e-006 3.8147e-006 -1.4195 -2.60481 3.76061 27.642 -4.26325e-014 -7.62939e-006 -2.53767 -0.0996129 2.28566 0.267464 -6.12426 7.49305 -67.0337 5.24394 -25.2308 14.7158 0 1.90735e-006 46.8269 -4.7421 4.59061 19.0859 3.55271e-015 1.90735e-006 -39.0502 2.8528 5.71938 2.68911 -0.270653 -0.785278 -50.5054 -1.42101 -7.47621 21.1083 1.52588e-005 -1.14441e-005 -1.4195 2.60482 -3.76062 27.642 2.84217e-014 0 -2.53767 0.0996154 -2.28567 7.59942 -1.43242 2.22045e-016 -2.53117 0.364345 0.767129 3.64919 -0.00226212 -9.31324e-010 27.5783 0.010003 0.040756 3.32337 -0.00286102 -9.31324e-010 -1.86986 -0.370515 0.412537 4.63255 -0.573479 -9.3206e-010 1.67955 -0.193156 0.0710624 1.05388 2.23563 -9.2779e-010 -84.0395 -0.0209198 -179.969 
